<svg xmlns="http://www.w3.org/2000/svg" version="1.1" xmlns:xlink="http://www.w3.org/1999/xlink" xmlns:svgjs="http://svgjs.dev/svgjs" width="1500" height="1687" viewBox="0 0 1500 1687"><g transform="matrix(1,0,0,1,0.000009637669336370891,0)"><svg viewBox="0 0 320 360" data-background-color="#854ce6" preserveAspectRatio="xMidYMid meet" height="1687" width="1500" xmlns="http://www.w3.org/2000/svg" xmlns:xlink="http://www.w3.org/1999/xlink"><g id="tight-bounds" transform="matrix(1,0,0,1,0.0000020560361235766322,0)"><svg viewBox="0 0 320 360" height="360" width="320"><g><svg></svg></g><g><svg viewBox="0 0 320 360" height="360" width="320"><g><path transform="translate(-15.58119,4.24857) scale(3.51065,3.51065)" d="M51.5 85.2c-0.4-0.5-0.8-0.2-0.8-0.5-2.4 0.6-6.9-1-8.8-0.8 0.4-0.6-0.6-0.5-0.6-0.9-0.4 0.6-0.8 0-1.4 0.2-0.6-1.5-3-0.4-3.3-2.3-1.4 0-1.9-0.8-3.3-1.6 0.1-0.1 0.2-0.1 0.3-0.2-0.7-0.1-0.7-0.5-1.3-0.5l0.2-0.4c-1.1-0.2-1.5-1.9-3.1-2.5-0.5-0.1-1.6-1.8-2.2-2.2-0.3-0.2-0.8-0.2-0.1-0.3-0.1-0.1-0.1-0.3 0-0.4-0.7-0.2-0.8-0.8-1.7-1.1-0.1-0.3 0.2-0.5 0-0.7-0.2-0.1-0.5 0.1-0.7 0-0.1 1.8 1.9 2 2.5 3.5-0.2-0.2-0.5-0.8-0.7-0.4-0.1 0.3 0.8 1.4 0.8 0.8-0.3 0.2-0.4-0.3-0.2-0.4 0.3 0.5 0.9 0.4 0.9 0.8-0.3 0.3-0.7-0.3-0.6 0.2 0.9 0.5 0.8 1 1.3 1.7-0.4-0.5-0.5 0.4-0.9 0-0.1-1.5-1.8-1.2-1.8-2.7-0.2-0.5-0.4-0.1-0.7-0.3 0.4-0.4-1.2-1.8-1.2-1.3-0.5-0.6-0.2-0.8-0.3-1.2-0.4-0.1-0.1 0.4-0.4 0.1 0.4-0.7-0.5-1.6-1.1-2.3l0.4-0.2c-0.7-0.4-0.8-1.2-1.3-2.1-0.6 0.9 1.2 2.9 0.9 3.3 0 0.1 0.7 0.9 0.9 1.3 0.8 1.4 1.4 3.1 2.5 3.9-0.2-0.1-0.1-0.7 0.2-0.4 0 0.3-0.2 0.6-0.2 0.9 0.6 0.6 1.1 1.1 1.7 1.7-1.3-0.8-2.6-1.6-3.5-2.8 0.5-0.1 1 0.8 1.4 0.7-1-0.8-0.7-1.1-1.1-2.1-0.4-0.3 0.1 0.4-0.3 0.5-1.3-1.2-2.3-1.9-2.9-3 0.1-0.1 0.2-0.2 0.2-0.4-0.1-0.1-0.1-0.1-0.2-0.2 0.6 0.6 0.8 1.1 1.5 1.2-0.3-0.3 0-0.4-0.4-0.7-0.2-0.4-0.5 0.2-0.7-0.1 0.2-0.3 0-0.7 0-1-0.2 0-0.4 0-0.5-0.3-0.2-0.1-0.3 0-0.4 0.2-0.1-0.1-0.1-0.3-0.2-0.4v-0.1c-0.1-0.1-0.2-0.3-0.3-0.4-0.8-2.1-1.3-4.9-2.4-6.7 0.3-1.2-0.2-3.6-0.5-4.2 0.3-0.5 0.1-2.8-0.1-3.2-0.5 0.2 0.1 1.3-0.4 1.6-0.5-2.2 0.3-4.7 0.1-6.7 0.2 0 0.4 0 0.4-0.1-0.3-0.3 0.2-0.9 0.1-1.6 0.4-0.9-0.9 1.3-0.9 2.2-0.1 0.2-0.5 0-0.4 0.5 0 0.7 0.2 2.1-0.2 3.1-0.2 0-0.2-0.2-0.4-0.1-0.1 0.5-0.2 1.1-0.3 1.6-0.1-0.2-0.2-0.5-0.2-0.6-0.5-2.5 0-5.4-0.2-7.5 0.4 0 0.4-0.6 0.7-0.8-0.1 0.8-0.3 1.8 0.2 2 0.4-3.9 1.2-8.2 3-12.4 1.3-3.1 3.2-6.2 5.5-8.7 0.2 0.3-0.1 1 0 1.3 2-2.1 3.3-4.6 5.5-6 0.1 0.5-0.9 0.9-0.9 1.3 0.9-0.9 1.2-0.6 2.2-0.9 0.3-0.4-0.4 0-0.5-0.4 0.6-0.4 1-0.9 1.4-1.2 0 0.1-0.1 0.1-0.1 0.2 1.1-0.3 1.2-0.9 2-1.1-0.1-0.1-0.3-0.2-0.6-0.1 0.2-0.1 0.5-0.3 0.8-0.4-0.1 0-0.1 0.1-0.2 0.1 0.6-0.3 0.1 0.1 0.1 0.3 0.1 0 0.2-0.1 0.2-0.1-0.6 0.4-1 0.6-1.2 1.3 0.3-0.2 0.4 0 0.8-0.3 0.4-0.2-0.1-0.5 0.2-0.7 0.3 0.2 0.7 0.1 1 0.1 0-0.2 0.1-0.4 0.3-0.5 0.1-0.2 0-0.3-0.1-0.3 0.1-0.1 0.2-0.1 0.4-0.2 0 0 0.1 0 0.1 0.1 1.7-0.8 3.6-1.5 5.4-2.1 1.1-0.1 2.5-0.1 3.1-0.8-0.2 0-0.4 0.1-0.5 0 0.1 0 0.3-0.1 0.4-0.1 0.2 0.2 0.5 0 0.2 0.4 0.1 0 0.1 0 0.2-0.1 0 0.1 0 0.1 0.1 0.2 0.1 0 0.2-0.1 0.3-0.3 0.1 0 0.2 0 0.3-0.1l-0.1 0.1c0.8-0.2 1.5-0.1 2.6-0.3 0-0.1 0-0.2 0-0.3 0.2 0 0.3-0.1 0.5-0.1v0.1c0.4-0.2 0.8 0.2 0.8 0 0.1 0 0.1 0 0.2 0 0 0.2-0.1 0.3-0.1 0.4 0.5 0 0.8 0 1-0.3-0.1-0.1-0.2-0.1-0.3-0.1 0.2 0 0.4-0.1 0.6-0.2 0.3 0.1 0.4 0.2 0.4 0.6 0.5-0.9 2.1 0.2 2.8 0 0.3 0 0.2-0.4 0.4-0.6 0.1 0 0.2 0 0.3 0 0.5 0.4 1.2 0.8 2.1 0.9-0.8-0.2 0.1-0.3 0.2-0.4-0.2 0-0.2-0.1-0.2-0.2 0.3 0 0.6 0.1 0.9 0.1 0 0.2 0.1 0.3 0.3 0.3 0.2 0 0.2-0.1 0.2-0.3 0.3 0 0.5 0 0.8 0.1-0.1 0.4 0.5 0.5 0.7 0.8-0.8-0.2-1.7-0.5-2 0 3.2 0.7 6.7 1.7 10.1 3.4 0 0 0 0 0 0.1h0.1c0.6 0.3 1.2 0.6 1.8 0.9 0.4 0.2 0.7 0.4 1.1 0.7 0 0.1 0 0.2 0.2 0.2h0.1c0.4 0.3 0.8 0.5 1.2 0.8 0.4 0.6 0.8 1.4 1.5 1.2 1.5 2.3 3.1 3.2 4.4 5.6 0.1-0.4 0.4 0.9 0.9 1-0.8-0.1 0.5 0.5-0.3 0.4 0.7 0.7 0.9 1 1 1.8-0.2-0.4-0.3-0.5-0.4-0.1-0.1 0.6 0.7-0.1 1 0.5-0.6 0-0.4 0.4-0.3 0.9 0.3-0.3 0.2-0.6 0.5-0.5 0.4 0.4-0.2 0.5-0.1 0.8 0.3-0.4 0.4-0.2 0.8 0-0.5 0.1 0.3 0.8-0.3 0.5 0.4 0.5 0.5 0.8 0.3 1.3-0.4-0.6-0.1-1-0.7-0.9 1.2 1 0.6 3.3 2 3.5-0.9 0.2 0 0.6-0.5 0.7 0.6 0.2 0.3 1 1 1.2-0.1 0.5-0.3 0.8-0.4 1.3 0.3 0.4 0.4 1.2 0.9 1.3-0.3 0.3-0.1 1.1-0.4 1.4 0.4-0.2 0.6-0.2 0.9 0.2-0.5 0.4-0.1 0.8-0.4 0.9 0.9 2.3-0.2 7 0.3 8.8-0.6-0.3-0.4 0.7-0.8 0.7 0.7 0.3 0.1 0.8 0.4 1.3-1.4 0.8 0 3-1.9 3.5 0.2 1.4-0.6 2-1.2 3.5-0.1-0.1-0.1-0.2-0.2-0.3-0.1 0.7-0.5 0.8-0.3 1.4l-0.4-0.2c0 1.1-1.7 1.7-2.1 3.4-0.1 0.5-1.6 1.8-2 2.5-0.2 0.3-0.1 0.8-0.3 0.1-0.1 0.1-0.3 0.1-0.4 0.1-0.1 0.7-0.7 0.9-0.9 1.8-0.2 0.1-0.5-0.2-0.7 0.1 0 0.2 0.2 0.5 0.1 0.7 1.8-0.1 1.8-2.2 3.2-2.9-0.1 0.3-0.7 0.6-0.3 0.8 0.3 0 1.2-1 0.7-0.9 0.3 0.2-0.3 0.4-0.4 0.3 0.5-0.4 0.3-0.9 0.7-1 0.3 0.2-0.3 0.7 0.3 0.6 0.4-0.9 0.9-1 1.5-1.5-0.4 0.4 0.5 0.5 0.1 0.9-1.5 0.3-1 2-2.5 2.2-0.4 0.3-0.1 0.4-0.2 0.7-0.5-0.3-1.6 1.4-1.2 1.3-0.5 0.5-0.8 0.3-1.2 0.4-0.1 0.4 0.4 0.1 0.2 0.4-0.7-0.3-1.6 0.7-2.2 1.4l-0.3-0.3c-0.3 0.8-1.1 0.9-2 1.5 1 0.5 2.7-1.6 3.2-1.3 0.1 0 0.9-0.8 1.2-1.1 1.3-1 2.9-1.8 3.5-2.9-0.1 0.2-0.7 0.2-0.4-0.1 0.3-0.1 0.6 0.1 0.9 0.1 1.6-2.2 3.6-4 5.1-6.6 0.1-0.1 0.2-0.3 0.3-0.5-0.2 0.6-0.5 1.1-0.7 1.7-1.6 1.1-2.2 4.3-4.1 4.8 0.1 1.1-0.9 1.4-1.4 2.7-0.3 0.4-0.5-0.3-0.8 0.2 0.3 1.4-2.5 1.3-2.4 2.6-0.2 0.1-0.5 0.2-0.7 0.4h-0.1c-0.1 0.1-0.1 0.1-0.2 0.2-0.5 0.3-0.9 0.6-1.3 0.9-1.4 0.8-3.3 1.4-4.8 2.2v-0.1c-0.4 0.2-0.9 0.1-0.8 0.5-0.3 0.2-0.6 0.4-0.9 0.6-0.1 0-0.1 0-0.2 0 0 0-0.1-0.1-0.2-0.1-0.2 0-0.2 0-0.3 0.1-1.3 0.1-3 0.7-3.5 1.1-0.5-0.3-2.8 0.2-3.2 0.4 0.2 0.3 0.8 0 1.3 0-0.3 0.1-0.6 0.2-0.7 0.4-0.1 0-0.1 0-0.2 0-0.1-0.3-0.4 0-0.5-0.1h0.1c-0.1-0.4-0.4-0.6-0.9-0.5 0 0.2 0 0.3-0.1 0.5 0.2 0 0.8-0.3 0.8 0-0.1 0-0.1 0.1 0 0.1-0.2 0.2-0.5 0.2-0.7 0.3-0.4 0-0.9 0-1.3 0-0.1-0.1-0.2-0.1-0.4-0.2-0.1 0.1-0.3 0.1-0.4 0.2-0.6 0-1.3 0.1-1.8 0.2 0-0.2 0-0.4-0.2-0.4-0.3 0.4-0.9-0.1-1.6 0.1-0.7-0.2 0.4 0.3 1.4 0.5-0.1 0.1-0.2 0.2-0.5 0.3M37.5 86.6c-1.4-1.3-4.3-1.9-4.8-2.9-0.8-0.1-2-1.6-3-1.8 0.5 0 0.1-0.3 0-0.5-0.2 0.2-0.4 0.3-0.6 0.3 0-0.8-0.8-1.3-1.5-1.8 0.5 0.3 0.9 0.5 1.5 0.6 0-0.2 0-0.4 0.2-0.4 0.7 0.7 1.5 1.4 2.4 2.1 1.2 1.1 7.4 3.9 8.5 4.4 0 0-0.2 0.4-0.1 0.4 0.5 0.3 0.9-0.3 1 0.4-1.6 0.2-2.2-0.9-3.6-0.8M83.6 63.4v0.1 0c-0.1 0 0-0.1 0-0.1M43.2 17.1c-0.1 0.1-0.2 0.1-0.2 0.1 0-0.1 0.1-0.1 0.2-0.1M41.3 17.6c0 0.1 0 0.1 0 0 0 0.1 0 0.1 0 0 0 0.1 0 0 0 0M34.7 19.7v0c0.1-0.1 0.1-0.1 0.2-0.1-0.1 0-0.2 0.1-0.2 0.1M50.7 16.4c-0.2 0-0.3 0-0.4-0.1 0.1 0 0.2 0 0.3 0h0.1c0 0 0 0 0 0.1M52.5 16.6c-0.1-0.1-0.4-0.2-0.7-0.2 0-0.1 0.1-0.2 0.1-0.2 0.1 0 0.2 0 0.3 0 0 0 0.1 0 0.1 0.1 0 0 0 0 0-0.1 0.1 0 0.1 0 0.2 0 0.1 0.2 0.2 0.3 0 0.4M55.8 16.9c-0.5 0.1-0.8-0.1-1.3-0.4 0.3 0 0.7 0.1 1 0.2 0.1 0 0.2 0.1 0.3 0.2M91.4 31.1c-0.2 0.1-0.3 0.1-0.5-0.3-1.6-3.4-4.5-8.3-8.7-12.4-4.1-4.2-9.6-7.6-14.6-9.4 0.3 0.1 0.7 0.3 0.5 0.5-4.4-1.7-8.6-2.7-12.6-3.1-10.8-1.7-22.1 0.6-30.8 6.2 0.1 0.2 0.1 0.3-0.2 0.5-3.2 2-7.7 5.5-11.3 10.1-3.6 4.6-6.4 10.4-7.6 15.6 0.1-0.3 0.2-0.8 0.4-0.6-2.6 10.3-1.9 19.1 1.7 26.7 0.2-0.2-0.5-1.2 0.1-1.1 0.4 1.1 0.9 2.3 1.5 3.4 0.7 1.6 1.5 3.7 2.6 4.2-2.8-5.5-4.7-11.8-4.9-17.4 0.4 0.8 0.3 2.5 0.9 3.2 0.2-3.8-0.7-8.9 0.6-12.5-0.3 1.9-0.5 4.5-0.3 7.1 0 1.9 0.9 7.2 1.5 7.7-0.1-0.1-0.1-0.6 0-0.6 0.3 0.6-0.4 0.9 0.1 1 0-0.2 0.1-0.2 0.2-0.2 1 2.2 2.3 5.6 3.3 7.3 1.2 2.2 2.8 4.2 4.6 6 0 0.1 0.1 0.1 0.1 0.2 0.2 0.5 0.9 1.1 1.1 1.5 0.1 0.2-0.1 0.5 0 0.7 1.5 2.8 3.7 5.6 6.4 7.8 1.7 2 4.4 4.1 7.7 5.9 3.2 1.7 6.9 3.1 10.3 3.9 2.4 0.6 5.3 0.7 7.1 1.1 2.4 0.5 6.6-0.2 8.7-0.6 12.6-1.9 25.1-10.5 31.4-22.9 6.5-12.5 6.3-27.8 0.7-39.5" fill="#e1e1e3" fill-rule="nonzero" stroke="none" stroke-width="1" stroke-linecap="butt" stroke-linejoin="miter" stroke-miterlimit="10" stroke-dasharray="" stroke-dashoffset="0" font-family="none" font-weight="none" font-size="none" text-anchor="none" style="mix-blend-mode: normal" data-fill-palette-color="tertiary"></path></g><g transform="matrix(1,0,0,1,80,148.59221844932904)"><svg viewBox="0 0 160 62.81556310134192" height="62.81556310134192" width="160"><g><svg viewBox="0 0 160 62.81556310134192" height="62.81556310134192" width="160"><g transform="matrix(1,0,0,1,0,32.317740853934104)"><svg viewBox="0 0 160 30.49782224740782" height="30.49782224740782" width="160"><g id="textblocktransform"><svg viewBox="0 0 160 30.49782224740782" height="30.49782224740782" width="160" id="textblock"><g><svg viewBox="0 0 160 30.49782224740782" height="30.49782224740782" width="160"><g transform="matrix(1,0,0,1,0,0)"><svg width="160" viewBox="1.0644600000000004 -21.126179999999998 334.7842000000001 63.813665485470416" height="30.49782224740782" data-palette-color="#c8cfd8"><path d="M11.468 14.939l-10.404-2.182 7.106-33.883 10.404 2.182c5.977 1.253 10.056 3.693 12.238 7.317 2.189 3.626 2.729 8.085 1.619 13.377v0c-1.089 5.194-3.363 9.005-6.822 11.433-3.451 2.423-8.165 3.008-14.141 1.756zM11.531-16.886l-5.685 27.11 6.244 1.31c3.288 0.69 6.022 0.697 8.2 0.023 2.185-0.673 3.906-1.929 5.164-3.77 1.264-1.84 2.187-4.146 2.769-6.919v0c0.597-2.845 0.687-5.37 0.27-7.576-0.408-2.211-1.476-4.07-3.203-5.576-1.721-1.505-4.226-2.603-7.515-3.293v0zM42.666-9.459v0c-0.814-0.145-1.442-0.534-1.885-1.168-0.436-0.633-0.582-1.353-0.438-2.16v0c0.139-0.781 0.52-1.384 1.144-1.808 0.63-0.423 1.353-0.562 2.167-0.417v0c0.775 0.138 1.391 0.515 1.85 1.132 0.459 0.617 0.619 1.315 0.48 2.096v0c-0.144 0.807-0.539 1.431-1.186 1.871-0.647 0.44-1.358 0.591-2.132 0.454zM39.457 20.41l-4.086-0.726 4.295-24.151 4.086 0.726zM56.101 23.587v0c-2.9-0.44-5.201-1.538-6.904-3.293-1.701-1.762-2.523-3.923-2.465-6.484v0l4.202 0.638c0.071 1.312 0.579 2.515 1.525 3.61 0.953 1.095 2.359 1.784 4.218 2.066v0c1.727 0.262 3.055 0.089 3.983-0.518 0.928-0.608 1.47-1.419 1.623-2.434v0c0.222-1.463-0.16-2.523-1.146-3.178-0.987-0.649-2.413-1.314-4.279-1.994v0c-1.265-0.462-2.513-1.036-3.744-1.722-1.224-0.685-2.21-1.543-2.957-2.573-0.741-1.029-0.999-2.279-0.776-3.749v0c0.321-2.116 1.372-3.73 3.152-4.842 1.788-1.118 4.036-1.471 6.746-1.059v0c2.577 0.391 4.588 1.357 6.033 2.898 1.453 1.535 2.13 3.513 2.033 5.933v0l-4.064-0.617c0.023-1.264-0.36-2.314-1.15-3.149-0.789-0.841-1.932-1.376-3.428-1.602v0c-1.47-0.223-2.651-0.085-3.543 0.413-0.892 0.498-1.414 1.255-1.568 2.27v0c-0.148 0.975 0.25 1.818 1.194 2.528 0.944 0.71 2.266 1.396 3.966 2.058v0c1.447 0.55 2.81 1.165 4.089 1.845 1.286 0.681 2.29 1.551 3.012 2.612 0.722 1.06 0.95 2.471 0.683 4.23v0c-0.298 2.187-1.395 3.861-3.291 5.023-1.896 1.162-4.277 1.525-7.145 1.09zM75.92 25.654l-4.132-0.484 4.139-35.368 4.132 0.483-1.776 15.177c0.99-1.408 2.29-2.444 3.897-3.108 1.601-0.658 3.288-0.884 5.063-0.677v0c2.814 0.329 4.969 1.471 6.466 3.425 1.496 1.954 2.032 4.748 1.607 8.384v0l-1.667 14.242-4.072-0.476 1.615-13.806c0.594-5.079-1.155-7.857-5.247-8.336v0c-2.132-0.249-4.009 0.303-5.63 1.657-1.615 1.355-2.588 3.443-2.918 6.263v0zM108.456 29.493v0c-2.034-0.161-3.698-0.641-4.991-1.44-1.295-0.792-2.225-1.792-2.792-3-0.567-1.202-0.797-2.474-0.69-3.817v0c0.198-2.499 1.305-4.347 3.319-5.544 2.014-1.198 4.666-1.666 7.956-1.405v0l6.609 0.524 0.024-0.299c0.169-2.133-0.264-3.796-1.3-4.989-1.029-1.192-2.48-1.862-4.354-2.01v0c-1.608-0.128-3.029 0.168-4.264 0.885-1.227 0.712-2.051 1.827-2.472 3.345v0l-4.237-0.336c0.307-1.761 1.024-3.209 2.151-4.343 1.133-1.134 2.499-1.958 4.098-2.474 1.593-0.522 3.26-0.714 5.002-0.576v0c3.423 0.272 5.922 1.389 7.498 3.353 1.583 1.958 2.255 4.449 2.015 7.473v0l-1.194 15.043-3.698-0.294 0.099-4.406c-0.801 1.327-1.904 2.42-3.31 3.279-1.406 0.865-3.229 1.208-5.469 1.031zM109.382 26.045v0c1.575 0.125 2.963-0.176 4.165-0.903 1.195-0.734 2.141-1.736 2.836-3.005 0.703-1.268 1.111-2.624 1.226-4.066v0l0.004-0.05-6.271-0.498c-2.432-0.193-4.184 0.089-5.253 0.847-1.063 0.758-1.645 1.762-1.744 3.012v0c-0.102 1.283 0.285 2.347 1.161 3.192 0.876 0.845 2.168 1.336 3.876 1.471zM131.654 30.366l-4.156-0.18 1.06-24.507 3.756 0.162 0.06 4.407c0.86-1.518 2.048-2.687 3.565-3.509 1.524-0.828 3.225-1.202 5.103-1.121v0c2.897 0.125 5.174 1.108 6.829 2.948 1.649 1.84 2.394 4.588 2.236 8.244v0l-0.619 14.327-4.146-0.18 0.6-13.887c0.221-5.109-1.777-7.754-5.993-7.936v0c-2.111-0.091-3.9 0.599-5.364 2.07-1.465 1.471-2.259 3.626-2.382 6.464v0zM165.982 23.487v0c-1.387-0.006-2.656-0.191-3.808-0.555v0l-2.479 2.31c0.359 0.268 0.811 0.493 1.357 0.675 0.539 0.182 1.322 0.352 2.348 0.51 1.019 0.151 2.452 0.313 4.298 0.487v0c3.299 0.24 5.653 1.006 7.061 2.299 1.415 1.292 2.118 2.979 2.109 5.059v0c-0.006 1.413-0.398 2.762-1.176 4.045-0.785 1.283-1.976 2.335-3.573 3.155-1.603 0.82-3.658 1.225-6.165 1.215v0c-2.213-0.009-4.175-0.307-5.887-0.894-1.711-0.587-3.044-1.466-3.999-2.636-0.949-1.177-1.419-2.656-1.412-4.436v0c0.004-0.92 0.254-1.916 0.752-2.987 0.498-1.071 1.425-2.081 2.783-3.028v0c-0.725-0.303-1.341-0.629-1.846-0.978-0.512-0.349-0.98-0.737-1.406-1.166v0l0.005-1.14 4.217-4.133c-1.94-1.661-2.904-3.842-2.893-6.541v0c0.007-1.62 0.393-3.085 1.158-4.396 0.765-1.317 1.876-2.359 3.332-3.126 1.45-0.774 3.215-1.157 5.295-1.149v0c1.413 0.006 2.699 0.211 3.858 0.616v0l9.049 0.037-0.012 3.11-4.601 0.181c0.948 1.391 1.418 2.992 1.41 4.806v0c-0.007 1.613-0.399 3.078-1.178 4.395-0.779 1.317-1.886 2.359-3.322 3.127-1.443 0.767-3.201 1.147-5.275 1.138zM165.996 20.077v0c1.747 0.007 3.142-0.441 4.185-1.343 1.044-0.902 1.569-2.21 1.576-3.923v0c0.007-1.68-0.508-2.975-1.544-3.887-1.036-0.911-2.428-1.37-4.174-1.377v0c-1.78-0.007-3.192 0.44-4.236 1.343-1.044 0.902-1.569 2.194-1.575 3.874v0c-0.007 1.713 0.508 3.025 1.544 3.936 1.036 0.911 2.444 1.37 4.224 1.377zM158.718 34.348v0c-0.007 1.647 0.678 2.876 2.055 3.688 1.383 0.812 3.115 1.223 5.195 1.231v0c2.04 0.008 3.682-0.428 4.925-1.31 1.237-0.888 1.858-2.072 1.865-3.552v0c0.004-1.06-0.419-1.978-1.269-2.755-0.857-0.777-2.438-1.237-4.745-1.38v0c-1.813-0.141-3.379-0.31-4.698-0.509v0c-1.356 0.714-2.249 1.494-2.679 2.339-0.43 0.838-0.646 1.587-0.649 2.248zM201.798 30.42l-4.154 0.236-1.959-34.565 4.842-0.274 13.806 23.386 10.984-24.792 4.883-0.276 1.959 34.564-4.143 0.235-1.54-27.156-10.292 22.869-3.115 0.176-12.808-21.519zM250.816 27.311v0c-2.327 0.246-4.448-0.067-6.363-0.937-1.916-0.877-3.492-2.212-4.727-4.006-1.235-1.794-1.989-3.987-2.263-6.579v0c-0.269-2.552 0.005-4.844 0.823-6.874 0.812-2.023 2.073-3.665 3.784-4.925 1.704-1.259 3.753-2.015 6.146-2.268v0c2.36-0.249 4.459 0.069 6.295 0.955 1.836 0.885 3.304 2.148 4.402 3.789 1.105 1.64 1.763 3.461 1.974 5.463v0c0.038 0.358 0.066 0.72 0.085 1.087 0.025 0.359 0.061 0.768 0.109 1.225v0l-19.432 2.051c0.297 1.859 0.895 3.365 1.794 4.517 0.899 1.145 1.964 1.968 3.197 2.468 1.226 0.501 2.495 0.682 3.808 0.543v0c1.71-0.181 3.098-0.726 4.161-1.636 1.064-0.903 1.787-2.056 2.169-3.456v0l4.078-0.431c-0.411 2.329-1.466 4.338-3.165 6.026-1.692 1.687-3.984 2.683-6.875 2.988zM248.485 5.224v0c-1.962 0.207-3.643 0.991-5.041 2.352-1.398 1.361-2.092 3.201-2.082 5.519v0l15.344-1.62c-0.332-2.191-1.266-3.835-2.803-4.933-1.544-1.097-3.35-1.537-5.418-1.318zM272.309 24.08l-4.118 0.587-5.023-35.254 4.119-0.587 2.155 15.128c0.598-1.614 1.59-2.947 2.976-4 1.38-1.045 2.954-1.694 4.722-1.946v0c2.805-0.4 5.18 0.154 7.126 1.662 1.945 1.507 3.176 4.073 3.692 7.696v0l2.023 14.197-4.059 0.578-1.961-13.761c-0.721-5.062-3.121-7.303-7.2-6.722v0c-2.125 0.303-3.799 1.316-5.021 3.039-1.216 1.722-1.624 3.989-1.223 6.8v0zM309.824 18.04l-3.703 0.654c-2.212 0.391-4.043 0.163-5.493-0.684-1.456-0.846-2.431-2.668-2.926-5.464v0l-2.349-13.294-4.195 0.741-0.611-3.456 4.195-0.742-0.493-5.894 3.554-0.628 1.026 5.8 7.109-1.256 0.611 3.456-7.109 1.257 2.349 13.294c0.27 1.53 0.761 2.506 1.472 2.928 0.712 0.429 1.846 0.506 3.402 0.231v0l2.541-0.449zM323.856 15.763v0c-1.998 0.414-3.729 0.419-5.196 0.014-1.464-0.398-2.638-1.098-3.519-2.099-0.88-0.995-1.457-2.152-1.73-3.471v0c-0.509-2.455 0.037-4.538 1.636-6.252 1.599-1.713 4.014-2.905 7.245-3.575v0l6.492-1.345-0.061-0.294c-0.434-2.095-1.315-3.571-2.643-4.425-1.321-0.856-2.902-1.094-4.743-0.713v0c-1.58 0.327-2.862 1.008-3.845 2.043-0.979 1.027-1.458 2.328-1.438 3.903v0l-4.162 0.862c-0.198-1.777 0.085-3.367 0.85-4.772 0.771-1.406 1.852-2.579 3.243-3.521 1.383-0.947 2.93-1.598 4.64-1.952v0c3.362-0.697 6.074-0.322 8.137 1.123 2.068 1.437 3.41 3.641 4.025 6.61v0l3.062 14.777-3.633 0.752-1.138-4.257c-0.398 1.498-1.151 2.856-2.26 4.073-1.108 1.224-2.762 2.063-4.962 2.519zM323.78 12.194v0c1.547-0.321 2.796-0.998 3.746-2.032 0.942-1.039 1.57-2.266 1.882-3.679 0.32-1.414 0.333-2.83 0.04-4.246v0l-0.01-0.049-6.16 1.276c-2.389 0.495-3.992 1.256-4.806 2.283-0.809 1.025-1.086 2.152-0.832 3.379v0c0.261 1.26 0.93 2.173 2.007 2.74 1.077 0.567 2.455 0.676 4.133 0.328z" opacity="1" transform="matrix(1,0,0,1,0,0)" fill="#c8cfd8" class="wordmark-text-0" data-fill-palette-color="primary" id="text-0"></path></svg></g></svg></g></svg></g></svg></g><g transform="matrix(1,0,0,1,61.831084618565555,0)"><svg viewBox="0 0 36.33783076286889 30.49782224740782" height="30.49782224740782" width="36.33783076286889"><g><svg xmlns="http://www.w3.org/2000/svg" xmlns:xlink="http://www.w3.org/1999/xlink" version="1.1" x="0" y="0" viewBox="12 20 56 47" enable-background="new 0 0 80 80" xml:space="preserve" height="30.49782224740782" width="36.33783076286889" class="icon-icon-0" data-fill-palette-color="accent" id="icon-0"><g fill="#c8cfd8" data-fill-palette-color="accent"><path fill="#c8cfd8" d="M36.7 48.8L36.7 48.8c-1.5 0-2.7-1.2-2.7-2.6V36c0-1.4 1.2-2.6 2.6-2.6 0.4 0 0.8 0.1 1.2 0.3l9.6 5.1c0.9 0.5 1.4 1.3 1.4 2.3 0 1-0.5 1.9-1.4 2.3l-9.6 5.1C37.5 48.7 37.1 48.8 36.7 48.8zM36.6 35.4c-0.3 0-0.6 0.2-0.6 0.6v10.2c0 0.5 0.6 0.7 0.9 0.5l9.6-5.1c0.3-0.2 0.3-0.4 0.3-0.5 0-0.1 0-0.4-0.3-0.5l-9.6-5.1C36.8 35.4 36.7 35.4 36.6 35.4z" data-fill-palette-color="accent"></path></g><g fill="#c8cfd8" data-fill-palette-color="accent"><path fill="#c8cfd8" d="M65 67H15c-1.7 0-3-1.3-3-3V29c0-1.7 1.3-3 3-3h50c1.7 0 3 1.3 3 3v35C68 65.7 66.7 67 65 67zM15 28c-0.6 0-1 0.4-1 1v35c0 0.6 0.4 1 1 1h50c0.6 0 1-0.4 1-1V29c0-0.6-0.4-1-1-1H15z" data-fill-palette-color="accent"></path></g><g fill="#c8cfd8" data-fill-palette-color="accent"><polygon fill="#c8cfd8" points="48,26 46,26 46,22 34,22 34,26 32,26 32,20 48,20  " data-fill-palette-color="accent"></polygon></g><g fill="#c8cfd8" data-fill-palette-color="accent"><rect x="13" y="40" fill="#c8cfd8" width="19" height="2" data-fill-palette-color="accent"></rect></g><g fill="#c8cfd8" data-fill-palette-color="accent"><rect x="51" y="40" fill="#c8cfd8" width="16" height="2" data-fill-palette-color="accent"></rect></g></svg></g></svg></g><g></g></svg></g></svg></g></svg></g><defs></defs></svg><rect width="320" height="360" fill="none" stroke="none" visibility="hidden"></rect></g></svg></g></svg>