<svg width="337" height="168" viewBox="0 0 337 168" fill="none" xmlns="http://www.w3.org/2000/svg">
<path d="M27.7648 116.16C26.9115 116.16 26.1968 115.904 25.6208 115.392C25.0448 114.88 24.6128 114.192 24.3248 113.328C24.0368 112.453 23.8928 111.477 23.8928 110.4C23.8928 109.312 24.0368 108.336 24.3248 107.472C24.6128 106.597 25.0448 105.909 25.6208 105.408C26.1968 104.896 26.9115 104.64 27.7648 104.64C28.6395 104.64 29.3595 104.896 29.9248 105.408C30.5008 105.909 30.9328 106.597 31.2208 107.472C31.5088 108.336 31.6528 109.312 31.6528 110.4C31.6528 111.477 31.5088 112.453 31.2208 113.328C30.9328 114.192 30.5008 114.88 29.9248 115.392C29.3595 115.904 28.6395 116.16 27.7648 116.16ZM27.7648 115.168C28.3941 115.168 28.9168 114.971 29.3328 114.576C29.7595 114.181 30.0795 113.627 30.2928 112.912C30.5168 112.187 30.6288 111.349 30.6288 110.4C30.6288 109.44 30.5168 108.603 30.2928 107.888C30.0795 107.163 29.7595 106.603 29.3328 106.208C28.9168 105.813 28.3941 105.616 27.7648 105.616C27.1461 105.616 26.6235 105.813 26.1968 106.208C25.7808 106.603 25.4608 107.163 25.2368 107.888C25.0235 108.603 24.9168 109.44 24.9168 110.4C24.9168 111.349 25.0235 112.187 25.2368 112.912C25.4608 113.627 25.7808 114.181 26.1968 114.576C26.6235 114.971 27.1461 115.168 27.7648 115.168Z" fill="black"/>
<path d="M313.342 115.072C313.47 115.072 313.576 115.12 313.662 115.216C313.758 115.301 313.806 115.408 313.806 115.536C313.806 115.675 313.758 115.787 313.662 115.872C313.576 115.957 313.47 116 313.342 116H307.342C307.203 116 307.08 115.963 306.974 115.888C306.878 115.803 306.83 115.68 306.83 115.52C306.83 115.403 306.872 115.291 306.958 115.184L310.654 111.104C311.24 110.464 311.678 109.877 311.966 109.344C312.264 108.8 312.414 108.315 312.414 107.888C312.414 107.184 312.2 106.619 311.774 106.192C311.347 105.765 310.771 105.552 310.046 105.552C309.715 105.552 309.384 105.621 309.054 105.76C308.734 105.899 308.446 106.08 308.19 106.304C307.944 106.528 307.752 106.784 307.614 107.072C307.55 107.179 307.48 107.253 307.406 107.296C307.342 107.339 307.267 107.36 307.182 107.36C307.054 107.36 306.942 107.323 306.846 107.248C306.75 107.163 306.702 107.061 306.702 106.944C306.702 106.869 306.718 106.795 306.75 106.72C306.792 106.645 306.851 106.56 306.926 106.464C307.118 106.133 307.384 105.829 307.726 105.552C308.067 105.275 308.446 105.056 308.862 104.896C309.288 104.725 309.704 104.64 310.11 104.64C310.792 104.64 311.379 104.773 311.87 105.04C312.371 105.296 312.755 105.664 313.022 106.144C313.299 106.613 313.438 107.173 313.438 107.824C313.438 108.379 313.262 108.987 312.91 109.648C312.568 110.299 312.056 111.003 311.374 111.76L308.254 115.264L308.094 115.072H313.342ZM316.009 111.472C315.881 111.472 315.769 111.424 315.673 111.328C315.588 111.232 315.545 111.115 315.545 110.976C315.545 110.848 315.588 110.741 315.673 110.656C315.769 110.56 315.881 110.512 316.009 110.512H319.465C319.593 110.512 319.705 110.56 319.801 110.656C319.897 110.752 319.945 110.869 319.945 111.008C319.945 111.136 319.897 111.248 319.801 111.344C319.705 111.429 319.593 111.472 319.465 111.472H316.009ZM322.276 114.352C322.329 114.352 322.382 114.363 322.436 114.384C322.5 114.405 322.574 114.453 322.66 114.528C322.884 114.763 323.15 114.944 323.46 115.072C323.769 115.189 324.121 115.248 324.516 115.248C325.038 115.248 325.513 115.131 325.94 114.896C326.377 114.661 326.724 114.336 326.98 113.92C327.236 113.493 327.364 113.008 327.364 112.464C327.364 111.845 327.225 111.349 326.948 110.976C326.681 110.592 326.334 110.309 325.908 110.128C325.492 109.936 325.065 109.84 324.628 109.84C324.51 109.84 324.393 109.851 324.276 109.872C324.169 109.883 324.068 109.899 323.972 109.92C323.876 109.941 323.801 109.952 323.748 109.952C323.609 109.952 323.502 109.909 323.428 109.824C323.353 109.728 323.316 109.611 323.316 109.472C323.316 109.397 323.332 109.333 323.364 109.28C323.396 109.216 323.438 109.147 323.492 109.072L326.74 105.536L326.932 105.792H322.084C321.956 105.792 321.844 105.749 321.748 105.664C321.662 105.568 321.62 105.456 321.62 105.328C321.62 105.2 321.662 105.093 321.748 105.008C321.844 104.923 321.956 104.88 322.084 104.88H327.46C327.641 104.88 327.769 104.939 327.844 105.056C327.918 105.163 327.956 105.269 327.956 105.376C327.956 105.44 327.94 105.504 327.908 105.568C327.876 105.621 327.833 105.68 327.78 105.744L324.532 109.28L324.18 109.072C324.212 109.04 324.318 109.008 324.5 108.976C324.692 108.933 324.841 108.912 324.948 108.912C325.534 108.912 326.084 109.051 326.596 109.328C327.118 109.605 327.54 110.005 327.86 110.528C328.19 111.04 328.356 111.675 328.356 112.432C328.356 113.179 328.18 113.835 327.828 114.4C327.476 114.955 327.001 115.387 326.404 115.696C325.806 116.005 325.145 116.16 324.42 116.16C323.982 116.16 323.55 116.085 323.124 115.936C322.697 115.787 322.324 115.563 322.004 115.264C321.929 115.2 321.876 115.136 321.844 115.072C321.812 115.008 321.796 114.944 321.796 114.88C321.796 114.752 321.838 114.635 321.924 114.528C322.02 114.411 322.137 114.352 322.276 114.352Z" fill="black"/>
<path d="M174.409 16C174.26 16 174.137 15.952 174.041 15.856C173.945 15.76 173.897 15.648 173.897 15.52V5.888L174.073 6.048L171.945 7.472C171.86 7.536 171.769 7.568 171.673 7.568C171.545 7.568 171.428 7.51467 171.321 7.408C171.225 7.30133 171.177 7.184 171.177 7.056C171.177 6.88533 171.263 6.752 171.433 6.656L174.105 4.88C174.169 4.83733 174.233 4.81067 174.297 4.8C174.372 4.78933 174.436 4.78933 174.489 4.8C174.628 4.81067 174.735 4.864 174.809 4.96C174.884 5.04533 174.921 5.152 174.921 5.28V15.52C174.921 15.648 174.873 15.76 174.777 15.856C174.681 15.952 174.559 16 174.409 16Z" fill="black"/>
<path fill-rule="evenodd" clip-rule="evenodd" d="M171.132 164.043C165.869 164.295 161.742 160.364 161.767 155.336L171.277 99.9316L181.032 154.275C180.888 159.386 176.396 163.791 171.132 164.043Z" fill="#3F3E40"/>
<path fill-rule="evenodd" clip-rule="evenodd" d="M100.17 51.8831C120.632 36.0206 145.48 26.7915 172.32 26.7915C199.294 26.7915 224.141 36.0206 244.471 51.8831L205.406 94.4234C195.573 88.6552 184.279 85.4827 172.32 85.4827C160.362 85.4827 149.2 88.6552 139.368 94.4234L100.17 51.8831Z" fill="url(#paint0_linear_1158_2170)"/>
<path fill-rule="evenodd" clip-rule="evenodd" d="M48.5938 160.106C48.5938 116.989 67.3289 78.6306 96.2954 53.9717L134.962 95.9352C115.429 109.49 102.54 133.14 102.54 160.25H48.5938V160.106Z" fill="url(#paint1_linear_1158_2170)"/>
<path fill-rule="evenodd" clip-rule="evenodd" d="M249.088 53.9717C278.187 78.6306 296.79 116.989 296.79 160.106H242.843C242.843 133.14 229.821 109.346 210.422 95.791L249.088 53.9717Z" fill="url(#paint2_linear_1158_2170)"/>
<defs>
<linearGradient id="paint0_linear_1158_2170" x1="142.797" y1="38.4501" x2="137.253" y2="81.3859" gradientUnits="userSpaceOnUse">
<stop stop-color="#ECB603"/>
<stop offset="1" stop-color="#F8A00A"/>
</linearGradient>
<linearGradient id="paint1_linear_1158_2170" x1="91.7777" y1="53.9717" x2="91.7777" y2="160.25" gradientUnits="userSpaceOnUse">
<stop stop-color="#27AE11"/>
<stop offset="1" stop-color="#A4CD3C"/>
</linearGradient>
<linearGradient id="paint2_linear_1158_2170" x1="279.782" y1="107.616" x2="234.77" y2="126.468" gradientUnits="userSpaceOnUse">
<stop stop-color="#FF2727"/>
<stop offset="1" stop-color="#F8753D"/>
</linearGradient>
</defs>
</svg>
